<?xml version="1.0" encoding="UTF-8"?>
<svg width="941.89" height="203.04" data-name="Layer 1" version="1.1" viewBox="0 0 941.89 203.04" xmlns="http://www.w3.org/2000/svg" xmlns:cc="http://creativecommons.org/ns#" xmlns:dc="http://purl.org/dc/elements/1.1/" xmlns:rdf="http://www.w3.org/1999/02/22-rdf-syntax-ns#">
 <metadata>
  <rdf:RDF>
   <cc:Work rdf:about="">
    <dc:format>image/svg+xml</dc:format>
    <dc:type rdf:resource="http://purl.org/dc/dcmitype/StillImage"/>
    <dc:title/>
   </cc:Work>
  </rdf:RDF>
 </metadata>
 <defs>
  <style>.cls-1{fill:#222;}</style>
 </defs>
 <path class="cls-1" d="m606.93 0.01c-0.12 2.18-0.34 4.37-0.34 6.55q0 76.56 0 153.11v6.34c-1.9 0.14-3.35 0.35-4.8 0.35h-83.65c-7.13 0-13.78-1.78-18-7.56a24.16 24.16 0 0 1-4.63-12.79c-0.45-22.64-0.22-45.29-0.21-67.93 0-13.8 8.9-22.93 22.72-23 20.95-0.11 41.91 0 62.86 0h5.75v-55.07zm-92.94 73.63v74h72.72v-74z"/>
 <path class="cls-1" d="m0 71.01c4-12.29 12.65-16.55 25.28-16.19 21 0.6 41.93 0.15 62.89 0.17 14.52 0 22.59 8.06 22.65 22.57q0.06 15.46 0 30.94c0 13.37-7.61 21.06-21.08 21.13-21.81 0.11-43.62 0-65.43 0h-5.86v18.38h73.73v18.36h-5.25c-21.13 0-42.27-0.31-63.4 0.12-11.22 0.22-19.38-3.35-23.48-14.25zm18.35 40h73.85v-37.38h-73.85z"/>
 <path class="cls-1" d="m941.86 73.08h-56.4v92.93h-18.53v-6.17q0-76.89 0-153.76c0-2-0.1-4.05-0.15-6.08h18.27v55h6.33 45.1a38.51 38.51 0 0 1 5.41 0.77z"/>
 <path class="cls-1" d="m638.77 203.01v-18.1h73.16v-18.27c-1.79-0.09-3.57-0.25-5.34-0.25q-32 0-63.94 0c-15.66 0-23.44-7.76-23.44-23.26q0-32.73 0-65.45c0-13.59 8.88-22.56 22.54-22.61q34.26-0.13 68.5 0c11.32 0 18.34 6.25 19.92 17.5a45.57 45.57 0 0 1 0.35 6.07q0 51.26 0 102.5c0 15.58-6.31 21.89-21.81 21.9h-69.94zm73.16-129.3h-72.9v74h72.9z"/>
 <path class="cls-1" d="m340.1 184.83v-18.45h-5.45q-32.22 0-64.43 0c-15.19 0-22.65-7.54-22.65-22.78q0-33 0-66c0-14.18 8.5-22.58 22.79-22.61q33.49 0 67 0c13.08 0 21.16 7.49 21.24 20.57q0.32 54.28 0 108.57c0 11.8-7.43 18.77-19.25 18.81-23.16 0.08-46.33 0-69.5 0h-3.68v-18.11zm-74-37.05h73.83v-74.13h-73.87z"/>
 <path class="cls-1" d="m761.59 129.7v18.25h74.13v18.06c-1.51 0.12-2.95 0.34-4.4 0.34-21.82 0-43.64 0.11-65.46-0.08a28.88 28.88 0 0 1-10.82-2.07c-7.82-3.31-12.1-9.26-12.05-18.15 0.12-22.84 0-45.67 0-68.5 0-12.51 8.83-22.25 21.31-22.42 24-0.34 48-0.22 72.05 0 8.6 0.06 15 5.56 17 14a35.51 35.51 0 0 1 0.92 8q0.15 16 0 32c-0.11 13.85-6.86 20.58-20.61 20.59q-33.23 0-66.47 0zm74.19-56.07h-74v37.45h74z"/>
 <path class="cls-1" d="m482.63 166.22h-18.12v-17.59c-9.73 11.4-21.31 15.7-34.16 17.3a36.37 36.37 0 0 1-4.54 0.35c-11.33 0.05-22.66 0.11-34 0.06-9.86 0-21-7.4-20.52-21 0.58-16.89 0.08-33.81 0.15-50.72 0.09-21.71 16.91-39.15 38.6-39.56 17.75-0.33 35.51-0.17 53.26 0 10.49 0.08 17.74 6.88 19 17.36a57.6 57.6 0 0 1 0.35 6.57q0 40.59 0 81.16zm-18.62-92.69c-18.92 0-37.16-0.53-55.35 0.19-11.26 0.44-18.89 9.88-18.93 21.21-0.07 16.05 0 32.11 0 48.16 0 1.61 0.14 3.21 0.21 4.64h74.08z"/>
 <path class="cls-1" d="m234.73 166.11h-18.29v-5.68-64.44c0-15-7.86-22.67-22.92-22.68h-51.3v92.7h-18.29c-0.08-1.43-0.24-3-0.25-4.63q0-41.86 0-83.73c0-14.53 8.12-22.6 22.61-22.62q24.35 0 48.71 0c23.07 0.06 39.47 16 39.67 39 0.26 23.86 0.06 47.7 0.06 72.08z"/>
</svg>
