<svg id="Layer_1" data-name="Layer 1" xmlns="http://www.w3.org/2000/svg" viewBox="0 0 1200 1200"><defs><style>.cls-1{fill:#222;}</style></defs><path class="cls-1" d="M736,498c-.12,2.18-.34,4.37-.34,6.55q0,76.56,0,153.11V664c-1.9.14-3.35.35-4.8.35-27.89,0-55.77,0-83.65,0-7.13,0-13.78-1.78-18-7.56A24.16,24.16,0,0,1,624.58,644c-.45-22.64-.22-45.29-.21-67.93,0-13.8,8.9-22.93,22.72-23,20.95-.11,41.91,0,62.86,0h5.75V498Zm-92.94,73.63v74h72.72v-74Z"/><path class="cls-1" d="M129.07,569c4-12.29,12.65-16.55,25.28-16.19,21,.6,41.93.15,62.89.17,14.52,0,22.59,8.06,22.65,22.57q.06,15.46,0,30.94c0,13.37-7.61,21.06-21.08,21.13-21.81.11-43.62,0-65.43,0h-5.86V646h73.73v18.36H216c-21.13,0-42.27-.31-63.4.12-11.22.22-19.38-3.35-23.48-14.25Zm18.35,40h73.85V571.62H147.42Z"/><path class="cls-1" d="M1070.93,571.07h-56.4V664H996v-6.17q0-76.89,0-153.76c0-2-.1-4.05-.15-6.08h18.27v55h6.33c15,0,30.07,0,45.1,0a38.51,38.51,0,0,1,5.41.77Z"/><path class="cls-1" d="M767.84,701V682.9H841V664.63c-1.79-.09-3.57-.25-5.34-.25q-32,0-63.94,0c-15.66,0-23.44-7.76-23.44-23.26q0-32.73,0-65.45c0-13.59,8.88-22.56,22.54-22.61q34.26-.13,68.5,0c11.32,0,18.34,6.25,19.92,17.5a45.57,45.57,0,0,1,.35,6.07q0,51.26,0,102.5c0,15.58-6.31,21.89-21.81,21.9H767.84ZM841,571.7h-72.9v74H841Z"/><path class="cls-1" d="M469.17,682.82V664.37h-5.45q-32.22,0-64.43,0c-15.19,0-22.65-7.54-22.65-22.78q0-33,0-66c0-14.18,8.5-22.58,22.79-22.61q33.49,0,67,0c13.08,0,21.16,7.49,21.24,20.57q.32,54.28,0,108.57c0,11.8-7.43,18.77-19.25,18.81-23.16.08-46.33,0-69.5,0h-3.68V682.82Zm-74-37.05H469V571.64H395.13Z"/><path class="cls-1" d="M890.66,627.69v18.25h74.13V664c-1.51.12-2.95.34-4.4.34-21.82,0-43.64.11-65.46-.08a28.88,28.88,0,0,1-10.82-2.07c-7.82-3.31-12.1-9.26-12.05-18.15.12-22.84,0-45.67,0-68.5,0-12.51,8.83-22.25,21.31-22.42,24-.34,48-.22,72.05,0,8.6.06,15,5.56,17,14a35.51,35.51,0,0,1,.92,8q.15,16,0,32c-.11,13.85-6.86,20.58-20.61,20.59q-33.23,0-66.47,0Zm74.19-56.07h-74v37.45h74Z"/><path class="cls-1" d="M611.7,664.21H593.58V646.62c-9.73,11.4-21.31,15.7-34.16,17.3a36.37,36.37,0,0,1-4.54.35c-11.33.05-22.66.11-34,.06-9.86,0-21-7.4-20.52-21,.58-16.89.08-33.81.15-50.72.09-21.71,16.91-39.15,38.6-39.56,17.75-.33,35.51-.17,53.26,0,10.49.08,17.74,6.88,19,17.36a57.6,57.6,0,0,1,.35,6.57q0,40.59,0,81.16Zm-18.62-92.69c-18.92,0-37.16-.53-55.35.19-11.26.44-18.89,9.88-18.93,21.21-.07,16.05,0,32.11,0,48.16,0,1.61.14,3.21.21,4.64h74.08Z"/><path class="cls-1" d="M363.8,664.1H345.51v-5.68c0-21.48,0-43,0-64.44,0-15-7.86-22.67-22.92-22.68h-51.3V664H253c-.08-1.43-.24-3-.25-4.63q0-41.86,0-83.73c0-14.53,8.12-22.6,22.61-22.62q24.35,0,48.71,0c23.07.06,39.47,16,39.67,39C364,615.88,363.8,639.72,363.8,664.1Z"/></svg>