<svg id="Layer_1" data-name="Layer 1" xmlns="http://www.w3.org/2000/svg" viewBox="0 0 1200 1200"><defs><style>.cls-1{fill:#A0A0A0;}</style></defs><path class="cls-1" d="M309.88,520H256.25c-1.13,0-1.39.5-1.77,1.38l-25,66.41c-2.28,6.21-4.69,12.4-7.09,18.85l-.78-2c-10.49-27.71-21.12-55.53-31.62-83.24a1.78,1.78,0,0,0-1.9-1.38H133q0,78.3,0,156.85l1.4.12h37.69l1.4-.12V574.13l1,1.64q19.23,49.9,38.21,99.8c.38,1.14,1,1.39,2.14,1.39q3.62-.09,7.21-.09t7.21.09l.33,0a2.25,2.25,0,0,0,2.2-1.8l37.95-99.8.63-1.39.38.13V676.84H311V520.11Z"/><path class="cls-1" d="M819.21,520H783V676.68h36.21v-12.9l1.39,1.55a43.21,43.21,0,0,0,20.49,12.78c3,.76,6.2,1.13,9.36,1.77l4.89,0c2-.27,4-.39,6.08-.78A44.93,44.93,0,0,0,896.62,652a76.13,76.13,0,0,0,1.27-60.47,45.75,45.75,0,0,0-42.38-31c-1.17-.1-2.33-.15-3.49-.15a41.15,41.15,0,0,0-31.17,14.31c-.49.51-.86,1-1.64,1.77ZM840.92,647.8a24.57,24.57,0,0,1-7.88-1.31A26.76,26.76,0,0,1,820.26,639a4.18,4.18,0,0,1-1.14-2.91v-32a3.06,3.06,0,0,1,.64-2.14,27.21,27.21,0,0,1,37.3-3.67,25.54,25.54,0,0,1,8.6,17.83,32.46,32.46,0,0,1-2.78,18,24.44,24.44,0,0,1-22,13.72"/><path class="cls-1" d="M717.2,560.58a86.49,86.49,0,0,0-18.62,2A77,77,0,0,0,667.33,577c-1.26.88-1.4,1.52-.63,2.9,4,7.34,8,14.8,11.89,22.14l.78,1.14a50.69,50.69,0,0,1,27.44-11.89,33.4,33.4,0,0,1,4.46-.29A34.64,34.64,0,0,1,724,593.47,14.81,14.81,0,0,1,734.1,607c.24,3.79.12,7.59.12,11.38l-.25.51a31.06,31.06,0,0,0-10.86-8.1,55.79,55.79,0,0,0-35.92-3.67,33.4,33.4,0,0,0-19.74,11.77,36.67,36.67,0,0,0-6.06,34.4A35.39,35.39,0,0,0,687.19,678c3.16.89,6.45,1.27,9.61,1.9l4.44,0c2.79-.38,5.69-.76,8.47-1.26a41.94,41.94,0,0,0,24-12.53l.63-.12v10.85h36v-1.9c0-22.25.13-44.52,0-66.78a87.2,87.2,0,0,0-1-12.91,36.49,36.49,0,0,0-18.08-26.93A61,61,0,0,0,724,560.84q-3.4-.26-6.81-.26m-3.11,95.53a29,29,0,0,1-9.31-1.53,14.13,14.13,0,0,1-7.09-5.06l0,0a11.62,11.62,0,0,1,3.06-16.15,19.3,19.3,0,0,1,9.1-3.3,35.65,35.65,0,0,1,4.25-.26,33.93,33.93,0,0,1,11.57,2l1.64.64a12.37,12.37,0,0,1,6.33,4.93,12.67,12.67,0,0,1,.62,5.43h-.15c0,.77-.12,1.55-.09,2.18a5.69,5.69,0,0,1-2.78,5.82,24.82,24.82,0,0,1-12.41,4.93,29.85,29.85,0,0,1-4.72.38"/><path class="cls-1" d="M375.91,560.55a87.61,87.61,0,0,0-32.83,6.38,66.46,66.46,0,0,0-18.6,11.26l13.28,25,1.55-1.15A51,51,0,0,1,353.47,594a41.05,41.05,0,0,1,27.2-1.39,15.08,15.08,0,0,1,11.51,11.49,108.66,108.66,0,0,1,.63,14.43l-1.14-.64a33.73,33.73,0,0,0-10.12-7.22A54.9,54.9,0,0,0,345.63,607a33.38,33.38,0,0,0-20.11,12.27,37.63,37.63,0,0,0-6.07,32,35,35,0,0,0,25.3,26.31,96.45,96.45,0,0,0,10.75,2.28h4.4c2.28-.25,4.55-.51,6.83-.89A46.33,46.33,0,0,0,389,669.38c1.27-1,2.37-2.15,3.92-3.55v11H429V675.2c0-22.89.12-45.65,0-68.55a65.81,65.81,0,0,0-1-12.14,36.66,36.66,0,0,0-21.5-28.21,67.62,67.62,0,0,0-27.18-5.69h-.14c-1.08,0-2.16-.06-3.23-.06m-3.37,95.58a28.4,28.4,0,0,1-10-1.81,12,12,0,0,1-7.75-14.93,12.38,12.38,0,0,1,5.94-7,23.56,23.56,0,0,1,10.62-2.66c.61,0,1.22,0,1.83,0a31.62,31.62,0,0,1,12.21,2.45l.89.38c4.17,2,7.84,4.43,6.45,10.12l0,0c0,.88-.12,1.87,0,2.91a4.67,4.67,0,0,1-2,4.55,25.51,25.51,0,0,1-13.18,5.56,28.89,28.89,0,0,1-4.91.42"/><path class="cls-1" d="M1008.75,560.23a61,61,0,0,0-10.93,1,56.3,56.3,0,0,0-35.54,20,60,60,0,0,0-9.87,61.09c7.72,21.76,24.67,32.89,46.93,36.57,2.91.5,5.94.75,8.85,1,1.65,0,3.42,0,4.93.07,3.17-.37,6.45-.51,9.62-1a66.86,66.86,0,0,0,33.65-12.9l1.55-1.27c-5.19-7.84-10.37-15.68-15.68-23.65a38.86,38.86,0,0,1-15.69,7.75,39.9,39.9,0,0,1-12,1.85,40.37,40.37,0,0,1-13.55-2.35,23.38,23.38,0,0,1-14.54-14.55c-.13-.5-.25-1-.51-1.76H1067V619.79l-.25-1.64c-.89-5.19-1.26-10.51-2.66-15.57A54.39,54.39,0,0,0,1034.63,566a60.65,60.65,0,0,0-25.88-5.8m-23.2,47a20.9,20.9,0,0,1,7.34-12.91,21.82,21.82,0,0,1,11.26-4.42,33.46,33.46,0,0,1,4.79-.35,33,33,0,0,1,11.27,2,18.62,18.62,0,0,1,12,14.67v1Z"/><path class="cls-1" d="M484.72,560.75a71.87,71.87,0,0,0-19.7,2.76,41.43,41.43,0,0,0-22.49,14.92,33.87,33.87,0,0,0-5.94,26.44A29.31,29.31,0,0,0,443,619.29a38.8,38.8,0,0,0,17.45,11.14,184.77,184.77,0,0,0,27.2,5.94,68.39,68.39,0,0,1,11,3,5.28,5.28,0,0,1,3,2.6,5.23,5.23,0,0,1-2.33,7,15,15,0,0,1-4.43,1.89,42.48,42.48,0,0,1-20-.77,74.75,74.75,0,0,1-28.34-13.66c-4.93,8.48-9.86,17.08-14.92,25.68a14.4,14.4,0,0,0,2.15,1.9A80.73,80.73,0,0,0,473.14,679c3.16.38,6.33.63,9.49.89,1.52,0,3.16,0,4.87.13a21.74,21.74,0,0,1,2.79-.25A69.74,69.74,0,0,0,510.66,676a40.68,40.68,0,0,0,18.84-12.52,33.62,33.62,0,0,0,6.71-27.07A30.65,30.65,0,0,0,524.31,616a49.25,49.25,0,0,0-14.54-7.33A210.89,210.89,0,0,0,483.59,603a49.34,49.34,0,0,1-10.25-2.91l-1.75-1.15a3.94,3.94,0,0,1,.36-5.56,12.59,12.59,0,0,1,5.07-3.29,31.43,31.43,0,0,1,15.68-.5,50,50,0,0,1,25.58,11.76c4.68-8.47,9.24-17,13.79-25.42l-.38-.38-1-.77A77.62,77.62,0,0,0,493,561.23a71.49,71.49,0,0,0-8.26-.48"/><path class="cls-1" d="M577.49,520h-36V676.71l36.21,0V604.83a4.07,4.07,0,0,1,1-2.66,27.65,27.65,0,0,1,21.3-10,28.18,28.18,0,0,1,5.61.57,13.82,13.82,0,0,1,12,11.26,44,44,0,0,1,.78,8.09v64.64h36.17v-1.9c0-25.92.13-52,0-78a53.32,53.32,0,0,0-.88-10.24,29.17,29.17,0,0,0-19.23-23.15,51.69,51.69,0,0,0-26.69-2.15A49.33,49.33,0,0,0,578.63,576l-1.14.88Z"/><rect class="cls-1" x="907.26" y="520.11" width="36.05" height="156.85"/></svg>