<?xml version="1.0" encoding="UTF-8"?>
<svg width="1016" height="143.26" data-name="Layer 1" version="1.1" viewBox="0 0 1016 143.26" xmlns="http://www.w3.org/2000/svg" xmlns:cc="http://creativecommons.org/ns#" xmlns:dc="http://purl.org/dc/elements/1.1/" xmlns:rdf="http://www.w3.org/1999/02/22-rdf-syntax-ns#">
 <metadata>
  <rdf:RDF>
   <cc:Work rdf:about="">
    <dc:format>image/svg+xml</dc:format>
    <dc:type rdf:resource="http://purl.org/dc/dcmitype/StillImage"/>
    <dc:title/>
   </cc:Work>
  </rdf:RDF>
 </metadata>
 <defs>
  <style>.cls-1{fill:#A0A0A0;}</style>
 </defs>
 <polygon class="cls-1" transform="translate(-92,-528.37)" points="450.74 647.79 450.74 584.52 427.47 584.52 427.47 564.18 497.31 564.18 497.31 584.52 474.03 584.52 474.03 647.79"/>
 <path class="cls-1" d="m431 71.03c-4.77 0-7.75 3.58-8.36 9.55h17.89c-1.17-6-3-9.55-9.53-9.55m28.65 23.29h-37a9.86 9.86 0 0 0 9.48 10.19 8.79 8.79 0 0 0 1.26 0 34.21 34.21 0 0 0 16.13-4.17l8.36 13.73a46.16 46.16 0 0 1-25.67 7.16c-19.1 0-29.28-13.14-29.28-32.84 0-21.48 11.94-32.83 28.65-32.83 17.31 0 28.06 11.35 28.06 34.62z"/>
 <path class="cls-1" d="m499.65 120.63c-18.5 0-29.28-11.94-29.28-32.83 0-19.11 9.55-32.24 29.84-32.24a25.45 25.45 0 0 1 23.89 14.33l-14.93 11.34c-3-5.37-4.77-8.36-9.54-8.36-5.38 0-8.37 5.38-8.37 15.51s3 14.93 9 14.93c4.18 0 7.16-2.39 10.74-8.36l13.69 10.68a27.67 27.67 0 0 1-25 14.93"/>
 <path class="cls-1" d="m572.41 119.38v-35.75c0-8.36-3-10.15-7.16-10.15-4.77 0-7.17 2.39-7.17 10.15v35.78h-21.45v-78.22l21.49-8.36v28.65a24.31 24.31 0 0 1 15.52-5.37c13.72 0 20.33 8.94 20.33 25.66v37.61z"/>
 <path class="cls-1" d="m645.89 120.63c-25.08 0-38.23-18.51-38.23-43 0-26.84 15.53-43 38.23-43 20.33 0 28.65 9 34.62 24.47l-20.9 8.36c-3-7.76-6-12.53-13.72-12.53-9.55 0-13.73 9.55-13.73 22.68 0 12.53 4.18 22.68 14.32 22.68 7.17 0 10.15-4.17 14.92-11.94l19.7 10.15a37 37 0 0 1-35.21 22.13"/>
 <path class="cls-1" d="m733.62 80.63a14.35 14.35 0 0 0-10.15-5.38c-5.38 0-8.36 2.4-8.36 10.15v34h-21.49v-62.69h21.49v4.77a18.06 18.06 0 0 1 13.13-6 21.06 21.06 0 0 1 10.15 2.4z"/>
 <path class="cls-1" d="m784.33 119.39v-4.18a23 23 0 0 1-15.52 5.42c-13.73 0-20.34-8.94-20.34-25.66v-38.26h21.53v35.78c0 8.36 3 10.15 7.17 10.15s7.17-2.38 7.17-10.15v-35.78h21.49v62.68z"/>
 <path class="cls-1" d="m857.74 119.38v-35.75c0-8.36-3-10.15-7.16-10.15-4.77 0-7.17 2.39-7.17 10.15v35.78h-21.41v-62.7h21.48v4.18a24.36 24.36 0 0 1 15.52-5.38c13.72 0 20.32 9 20.32 25.67v38.22z"/>
 <path class="cls-1" d="m921.08 120.63c-18.49 0-29.28-11.94-29.28-32.83 0-19.11 9.55-32.24 29.85-32.24a25.43 25.43 0 0 1 23.88 14.33l-14.92 11.34c-3-5.37-4.78-8.36-9.55-8.36-5.37 0-8.36 5.38-8.36 15.51s3 14.93 8.95 14.93c4.18 0 7.17-2.39 10.74-8.36l13.73 10.68a27 27 0 0 1-25 14.93"/>
 <path class="cls-1" d="m994.44 119.38v-35.75c0-8.36-3-10.15-7.16-10.15-4.77 0-7.17 2.39-7.17 10.15v35.78h-21.45v-78.22l21.48-8.36v28.65a24.35 24.35 0 0 1 15.53-5.37c13.72 0 20.32 8.94 20.32 25.66v37.61z"/>
 <polygon class="cls-1" transform="translate(-92,-528.37)" points="139.76 576.13 139.76 671.63 187.51 671.63 187.51 576.13 235.27 576.13 235.27 528.37 92 528.37 92 576.13"/>
 <polygon class="cls-1" transform="translate(-92,-528.37)" points="378.52 671.63 378.52 623.88 283.02 623.88 283.02 576.13 235.26 576.13 235.26 671.63"/>
 <rect class="cls-1" x="191.02" width="95.5" height="47.76"/>
</svg>
