<svg id="Layer_1" data-name="Layer 1" xmlns="http://www.w3.org/2000/svg" viewBox="0 0 1200 1200"><defs><style>.cls-1{fill:#A0A0A0;}</style></defs><path class="cls-1" d="M436.62,508H551.09c-4.78,16-9.45,31.55-14.34,47-.33,1.08-2.66,2.22-4.11,2.22-5.88.23-11.77.12-18.9.12,5.57,19.89,11,39.11,16.79,59.78,1.08-3.2,1.9-5,2.45-6.89,9.77-32.45,19.66-64.79,29.22-97.24a6.32,6.32,0,0,1,7.08-5.46h.15c49.13.23,98.12.12,147.25.12,1.78,0,3.56.11,5.77.22v49.34H671.78V576h31.89v40.91H671.78v20.88h50.66v49.47H616.88v-146l-1.23-.34c-.78,1.68-1.55,3.33-2.23,5.12q-25.3,68.16-50.48,136.35a6.6,6.6,0,0,1-7.49,5.36c-16.34-.33-32.57-.23-48.9-.12-3.12,0-5-.55-6.22-3.88q-31.51-86.52-63.17-173.14a9.92,9.92,0,0,0-.54-2.58"/><path class="cls-1" d="M241.25,687.06v-67H214.81v67.12H157.47v-179h70.34v49.11H215v18.68H241V508.24h57.56V687.17c-19-.11-37.92-.11-57.27-.11"/><path class="cls-1" d="M793,588.48A21.21,21.21,0,0,0,812,580a15.14,15.14,0,0,0-.44-16.79,20.9,20.9,0,0,0-18.57-8Zm-57.35-80.79c18.34,0,36-.23,53.77.11a192.29,192.29,0,0,1,27.67,1.76A60.73,60.73,0,0,1,862,600.38a132.38,132.38,0,0,1-16.79,20.11c14.23,21,29.34,43.45,44.9,66.68-2.21.23-3.78.46-5.22.46-18.11,0-36.22-.11-54.46.1a8.74,8.74,0,0,1-8.11-4.28c-8.22-11.89-16.67-23.56-25.11-35.32-1-1.45-2.15-2.79-4.22-5.56v44.78h-57.3Z"/><path class="cls-1" d="M948.72,617.82V576.91h80.35a8.89,8.89,0,0,1,.56,2.14c0,29.13,0,58.12-.33,87.13a9.66,9.66,0,0,1-3.78,7.11c-33.13,21.11-68.24,26.45-103.58,7.78a89.78,89.78,0,0,1-49.45-87.9,86.46,86.46,0,0,1,80.45-84.83c18.33-1.39,36.89-.21,55.56-.21v52.45H983.73c-6.12,0-12.24-.23-18.34,0a37.05,37.05,0,0,0-35.73,38.36c0,.21,0,.43,0,.65a36.08,36.08,0,0,0,36.69,35.46h.54c10.23-.23,11.68-1.55,11.55-11.78,0-1.67-.21-3.22-.33-5.35-9.62-.1-19.18-.1-29.41-.1"/><path class="cls-1" d="M417.29,508.47v48.8H366.5V576h31.78v40.9H366.5v20.9h50.57v49.25H311.5V508.35q52.67.18,105.79.12"/><polygon class="cls-1" points="1040.62 508.36 1040.62 687.05 1146.33 687.05 1146.33 637.71 1095.77 637.71 1095.77 617.04 1127.43 617.04 1127.43 575.93 1095.88 575.93 1095.88 557.26 1146.2 557.26 1146.2 508.36 1040.62 508.36"/><polygon class="cls-1" points="53.67 508.13 53.67 557.7 87.23 557.7 87.23 687.29 144.12 687.29 144.12 508.13 53.67 508.13"/></svg>