<?xml version="1.0" encoding="UTF-8"?>
<svg width="1092.7" height="185.02" data-name="Layer 1" version="1.1" viewBox="0 0 1092.7 185.02" xmlns="http://www.w3.org/2000/svg" xmlns:cc="http://creativecommons.org/ns#" xmlns:dc="http://purl.org/dc/elements/1.1/" xmlns:rdf="http://www.w3.org/1999/02/22-rdf-syntax-ns#">
 <metadata>
  <rdf:RDF>
   <cc:Work rdf:about="">
    <dc:format>image/svg+xml</dc:format>
    <dc:type rdf:resource="http://purl.org/dc/dcmitype/StillImage"/>
    <dc:title/>
   </cc:Work>
  </rdf:RDF>
 </metadata>
 <defs>
  <style>.cls-1{fill:#222;}</style>
 </defs>
 <path class="cls-1" d="m382.95 0.52236h114.47c-4.78 16-9.45 31.55-14.34 47-0.33 1.08-2.66 2.22-4.11 2.22-5.88 0.23-11.77 0.12-18.9 0.12 5.57 19.89 11 39.11 16.79 59.78 1.08-3.2 1.9-5 2.45-6.89 9.77-32.45 19.66-64.79 29.22-97.24a6.32 6.32 0 0 1 7.08-5.46h0.15c49.13 0.23 98.12 0.12 147.25 0.12 1.78 0 3.56 0.11 5.77 0.22v49.34h-50.67v18.79h31.89v40.91h-31.89v20.88h50.66v49.47h-105.56v-146l-1.23-0.34c-0.78 1.68-1.55 3.33-2.23 5.12q-25.3 68.16-50.48 136.35a6.6 6.6 0 0 1-7.49 5.36c-16.34-0.33-32.57-0.23-48.9-0.12-3.12 0-5-0.55-6.22-3.88q-31.51-86.52-63.17-173.14a9.92 9.92 0 0 0-0.54-2.58"/>
 <path class="cls-1" d="m187.58 179.58v-67h-26.44v67.12h-57.34v-179h70.34v49.11h-12.81v18.68h26v-67.73h57.56v178.93c-19-0.11-37.92-0.11-57.27-0.11"/>
 <path class="cls-1" d="m739.33 81.002a21.21 21.21 0 0 0 19-8.48 15.14 15.14 0 0 0-0.44-16.79 20.9 20.9 0 0 0-18.57-8zm-57.35-80.79c18.34 0 36-0.23 53.77 0.11a192.29 192.29 0 0 1 27.67 1.76 60.73 60.73 0 0 1 44.91 90.82 132.38 132.38 0 0 1-16.79 20.11c14.23 21 29.34 43.45 44.9 66.68-2.21 0.23-3.78 0.46-5.22 0.46-18.11 0-36.22-0.11-54.46 0.1a8.74 8.74 0 0 1-8.11-4.28c-8.22-11.89-16.67-23.56-25.11-35.32-1-1.45-2.15-2.79-4.22-5.56v44.78h-57.3z"/>
 <path class="cls-1" d="m895.05 110.34v-40.91h80.35a8.89 8.89 0 0 1 0.56 2.14c0 29.13 0 58.12-0.33 87.13a9.66 9.66 0 0 1-3.78 7.11c-33.13 21.11-68.24 26.45-103.58 7.78a89.78 89.78 0 0 1-49.45-87.9 86.46 86.46 0 0 1 80.45-84.83c18.33-1.39 36.89-0.21 55.56-0.21v52.45h-24.77c-6.12 0-12.24-0.23-18.34 0a37.05 37.05 0 0 0-35.73 38.36v0.65a36.08 36.08 0 0 0 36.69 35.46h0.54c10.23-0.23 11.68-1.55 11.55-11.78 0-1.67-0.21-3.22-0.33-5.35-9.62-0.1-19.18-0.1-29.41-0.1"/>
 <path class="cls-1" d="m363.62 0.99236v48.8h-50.79v18.73h31.78v40.9h-31.78v20.9h50.57v49.25h-105.57v-178.7q52.67 0.18 105.79 0.12"/>
 <polygon class="cls-1" transform="translate(-53.67 -507.48)" points="1146.3 687.05 1146.3 637.71 1095.8 637.71 1095.8 617.04 1127.4 617.04 1127.4 575.93 1095.9 575.93 1095.9 557.26 1146.2 557.26 1146.2 508.36 1040.6 508.36 1040.6 687.05"/>
 <polygon class="cls-1" transform="translate(-53.67 -507.48)" points="87.23 557.7 87.23 687.29 144.12 687.29 144.12 508.13 53.67 508.13 53.67 557.7"/>
</svg>
