<?xml version="1.0" encoding="UTF-8"?>
<svg width="1054.3" height="251.98" data-name="Layer 1" version="1.1" viewBox="0 0 1054.3 251.98" xmlns="http://www.w3.org/2000/svg" xmlns:cc="http://creativecommons.org/ns#" xmlns:dc="http://purl.org/dc/elements/1.1/" xmlns:rdf="http://www.w3.org/1999/02/22-rdf-syntax-ns#">
 <metadata>
  <rdf:RDF>
   <cc:Work rdf:about="">
    <dc:format>image/svg+xml</dc:format>
    <dc:type rdf:resource="http://purl.org/dc/dcmitype/StillImage"/>
    <dc:title/>
   </cc:Work>
  </rdf:RDF>
 </metadata>
 <defs>
  <style>.cls-1{fill:#A0A0A0;}</style>
 </defs>
 <path class="cls-1" d="m477.27 251.9c2.14-15.35 4.17-30.72 6.46-46 2.37-15.92 5-31.8 7.47-47.7a28.47 28.47 0 0 0 0-3.56h-22.26c-11.48 0-15.55-6.92-9.77-16.64q41.1-69 82.25-138h1.17q-4.54 31.33-9.11 62.67c-1.63 11.1-3.39 22.18-5.29 34.51h19.93c5.54 0 11.61-1.14 15 5.06 3.31 6-0.87 10.38-3.57 14.94q-39.95 67.44-80 134.8z"/>
 <path class="cls-1" d="m0.05 55.9c2.37-0.64 4.73-1.82 7.1-1.84 20-0.15 40 0 60-0.15 4.29 0 6.58 1 6.5 5.8s-2.68 5.28-6.48 5.17c-6-0.17-12.06 0.23-18.06-0.12-4.93-0.3-6.31 1.61-6.28 6.35 0.17 25.06 0 50.12 0.16 75.18 0 4.88-1.71 6.43-6.46 6.42-5.52 0-5.69-3.31-5.68-7.31q0.06-36.42 0-72.85c0-7.69 0-7.69-7.45-7.71-5.63 0-11.27 0.18-16.9-0.09-2.19-0.1-4.33-1.2-6.5-1.85z"/>
 <path class="cls-1" d="m644.07 109.23c6.09 10.73 12 21.18 17.94 31.62a11.57 11.57 0 0 1 1.65 3.06c0.54 2.72 2.07 6.58 0.86 8-2.4 2.86-9.3 0.7-11.4-3.08-6-10.86-12.12-21.69-17.73-32.77-2.25-4.43-5-6-9.94-5.84-14.43 0.41-14.43 0.18-14.43 14.92 0 7.38-0.12 14.76 0 22.14 0.1 4.69-2.6 5.34-6.38 5.35s-5.72-1.09-5.7-5.33c0.12-27 0-54 0.14-81 0-7.56 3.68-12 10.6-12.11 10.84-0.12 21.87-0.34 32.49 1.45 16.13 2.71 20.44 13.21 19.6 28.14-0.68 12.78-3.33 15.76-17.7 25.45zm-33-26.32c0 4.28 0.13 8.56 0 12.82-0.13 3.24 1.15 4.73 4.37 4.57 7.17-0.36 14.4-0.21 21.47-1.19 8.91-1.24 13.36-7.33 13.48-16.87 0.13-10.09-3.43-15.18-13.22-16.59-7.25-1-14.71-0.82-22.06-0.58-1.37 0.05-3.59 2.78-3.8 4.47-0.59 4.36-0.27 8.91-0.28 13.36z"/>
 <path class="cls-1" d="m948.11 102.12c-4.19 13-7.8 24.19-11.4 35.4-0.94 3-1.88 5.91-2.73 8.89-1.3 4.54-4.16 6.63-9 6.57s-7-2.33-8.27-6.6c-5.42-18.81-11-37.58-16.31-56.42-0.77-2.71-2.13-6.16 2.77-7.34 4.46-1.06 7.53-0.63 8.88 4.45 3.8 14.22 7.79 28.41 11.71 42.6 0.55 2 1.2 3.94 2.3 7.52 1.3-3.38 2.12-5.22 2.73-7.13q5.77-18.3 11.47-36.63c1.26-4.07 2.88-7.79 8-7.89s6.82 3.62 8.17 7.66q6.27 18.76 12.59 37.5c0.54 1.62 1.17 3.22 2.3 6.29 1.06-2.7 1.77-4.1 2.16-5.59 3.87-14.61 7.76-29.21 11.46-43.86 1.11-4.43 3.38-6.35 7.94-5.2 3.32 0.84 4.85 2.19 3.7 6.19-5.52 19.19-10.69 38.47-16 57.71-1.16 4.18-3.6 6.64-8.28 6.72s-7.47-2-8.92-6.57c-3.9-12.18-8-24.29-12.12-36.41-0.69-2.08-1.63-4.08-3.15-7.86z"/>
 <path class="cls-1" d="m867.22 121.27h-18.07c-3.5 0-4.71 1.52-4.23 5.13 1.64 12.17 6.12 17 18.25 17.47 6.49 0.24 13.11-0.73 19.55-1.85 3.55-0.62 5.43-0.25 6.62 3.35s-0.61 5.13-3.5 6c-12.12 3.79-24.36 4.81-36.51 0.41-10.53-3.82-14.55-12.83-15.25-22.86-0.63-9.17-0.6-18.76 1.38-27.68 3.8-17.2 18.5-22.22 35.57-20 12.76 1.65 19.22 8.46 19.79 21.92 0.91 21.21 3.16 17.66-16 18-2.53 0.05-5.05 0-7.58 0zm12.71-10.3c0.61-7 0.93-13.64-5.22-17.42-7-4.28-14.7-3.82-21.67 0.08-6.43 3.6-8 10-7.47 17.34z"/>
 <path class="cls-1" d="m704.26 121.25c-5.82 0-11.65 0.06-17.48 0-3.37 0-4.74 1.15-4.67 4.82 0.23 12.66 8.2 19.25 23 18.19 5.19-0.37 10.31-1.87 15.5-2.14 1.86-0.09 5 1.59 5.43 3.07 0.47 1.64-1 5.32-2.49 5.81-13.18 4.45-26.57 5.66-39.65-0.32-6.19-2.83-9.59-8.34-11.36-14.77a67 67 0 0 1-0.55-33.37c4.23-18.24 18.7-23.4 35.94-21.3 13.12 1.6 19.15 9 19.92 22.37 1.18 20.48 2 17.34-16.54 17.62h-7zm-22-10c11.09 0 21.31 0.07 31.52-0.1a4.5 4.5 0 0 0 3.4-2.15c1.61-4-1.38-12.59-5-15.26-5.07-3.82-16-4.06-22.14-0.31-6.32 3.93-7.64 10.13-7.75 17.87z"/>
 <path class="cls-1" d="m1026.5 155.03c-5.87-1-11.82-1.78-17.7-2.94-3.66-0.72-6-2.75-4.67-7 1.23-3.86 3.88-3.86 7.41-3.33a158.35 158.35 0 0 0 20.72 1.93c6.36 0.11 10.13-3.23 10.86-8.41 0.83-6-3.15-8.31-7.82-9.9-5.68-1.93-11.5-3.48-17.13-5.54-10.21-3.73-14.2-10.6-13.07-21.85 0.87-8.58 7.3-15.06 17.27-16 7.46-0.67 15.05-0.26 22.55 0.16 3.49 0.19 7 1.2 6.2 6.38s-4.16 4.55-7.82 4.24c-6.15-0.51-12.32-1.06-18.48-1-4.44 0-7.83 2.4-8.73 7.09-0.93 4.86 1.09 8.47 5.68 10.21 6.33 2.4 12.86 4.3 19.18 6.74 11.42 4.42 15.58 12.93 12.29 24.61-2 7.12-7.19 10.92-14 12.62-4.07 1.03-8.36 1.33-12.74 1.99z"/>
 <path class="cls-1" d="m767.07 138.42c6.75-17.94 12.87-34.25 19-50.55 1.19-3.15 2.35-6.26 6.81-5.76 5.85 0.67 7.21 2.51 5.07 8.07-5.64 14.67-11.42 29.28-17.16 43.91-1.7 4.34-3.57 8.61-5.09 13s-4.59 6.07-8.9 6c-4.13-0.06-6.7-2.06-8.21-6.08-7.23-19.25-14.65-38.42-22-57.61-1-2.65-2.24-5.3 1.69-6.62 3.76-1.27 7.42-1.78 9.25 2.89 2 5.24 3.89 10.56 5.8 15.85 3.62 10 7.21 20.07 10.85 30.1 0.63 1.79 1.46 3.48 2.89 6.8z"/>
 <path class="cls-1" d="m810.13 117.64c0-9.69 0.14-19.38-0.06-29.06-0.09-4.18 1.33-6 5.65-6 4.49 0 5.5 2.05 5.47 6.09q-0.22 29.07 0 58.14c0 4-1 6.35-5.33 6.46-4.66 0.11-5.89-2.26-5.79-6.56 0.21-9.68 0.06-19.38 0.06-29.07z"/>
 <path class="cls-1" d="m811.25 60.9c-0.41-4.8 2-7.62 6.6-7.74s7.07 2.36 7.07 7.29c0 4.72-2.11 7.58-6.74 7.71s-7.27-2.32-6.93-7.26z"/>
 <path class="cls-1" d="m405.31 81.8c0-9.18 0.08-18 0-26.93-0.06-3.92 0.32-6.75 5.45-6.82s5.64 2.53 5.63 6.58c-0.08 28.53-0.16 57.06 0 85.59 0 5.77-2.16 9.22-7.49 10.86-10.9 3.33-22 4.87-33.22 2.19-9-2.15-14.35-8.2-16.44-17a73.41 73.41 0 0 1 0.11-35.11c3.37-13.48 12.37-20.01 27.47-20.26 5.9-0.11 11.9 0.55 18.49 0.9zm-0.06 34.71h0.05v-10.49c-0.13-13.5 2.79-14.08-15-14.73-12.5-0.46-19.3 4.18-20.49 14.28a110.09 110.09 0 0 0-0.19 23.66c1.08 10.69 5.88 14.72 16.33 15.06a77.68 77.68 0 0 0 12.17-0.87c4.74-0.58 7.15-3.43 7.14-8.27-0.02-6.25-0.01-12.43-0.01-18.64z"/>
 <path class="cls-1" d="m319.72 121.24c-5.64 0-11.27 0.07-16.91 0-4.23-0.07-5.93 1.37-5.11 6 2.16 12 6.17 16.27 18.36 16.71 6.5 0.23 13.12-0.77 19.55-1.93 3.71-0.67 5.36 0.16 6.48 3.62 1.2 3.72-0.94 5-3.72 5.9-11.74 3.64-23.59 4.54-35.45 0.72-8.36-2.7-13.73-8.94-14.87-17.18a118.28 118.28 0 0 1-0.79-29.41c2.4-20.83 18.62-26.77 36.67-24.29 13.09 1.79 19 9.26 19.83 23.23 0.23 3.67 0 7.38 0.19 11.06 0.25 4.12-1.82 5.59-5.58 5.57h-18.65zm-21.49-10.34h34.36c0.85-6.77 1-13.26-4.93-17.19-6.63-4.41-14.22-3.89-21.15-0.49s-8.54 9.97-8.28 17.68z"/>
 <path class="cls-1" d="m164.14 115.29c0 8.16-0.08 16.32 0 24.47 0.09 6-2.2 10-8.33 11.54-11.76 3-23.6 4.52-35.65 2.09-7.83-1.58-12.26-6.5-12.41-14.6-0.31-16.89-0.2-33.79-0.4-50.68 0-4 1.5-5.56 5.49-5.52 4.21 0 5.86 1.72 5.81 6-0.15 14.18-0.1 28.36 0 42.53 0.05 9.53 3.06 12.6 12.55 12.64a76.69 76.69 0 0 0 13.3-0.86c7.9-1.36 8.37-2.13 8.4-10.4 0-14.57 0.12-29.13 0-43.7 0-4.41 1.41-6.46 6-6.17 3.53 0.23 5.32 1.49 5.27 5.29-0.12 9.11-0.03 18.24-0.03 27.37z"/>
 <path class="cls-1" d="m198.57 155.18c-5.1-0.88-11-1.74-16.89-3-3.23-0.67-6-2.13-4.78-6.4 1.12-4 3.68-4.71 7.55-4.19a169.59 169.59 0 0 0 21.88 2c6.86 0 10.1-4 10.1-10.16 0-4.4-2.77-6.31-6.13-7.52-6-2.17-12.2-3.83-18.23-5.95-10-3.5-13.92-9.42-13.44-19.84 0.46-10.16 6-17 16.26-18 7.83-0.81 15.82-0.34 23.71 0.08 3.41 0.18 7.22 1.14 6.16 6.35-1 4.75-4.17 4.65-8 4.26a167.4 167.4 0 0 0-17.89-1.07c-4.56 0-8.28 1.88-9.16 7.16s1.36 8.74 6.12 10.51c6 2.24 12.14 4 18.13 6.26 10.3 3.83 14 9.68 13.18 20.56-0.65 9-6.42 15.31-16.14 17.29-3.76 0.76-7.64 1.03-12.43 1.66z"/>
 <path class="cls-1" d="m271.3 153.67c-16-0.43-22.15-6.57-22.42-22.22q-0.29-16-0.06-32.07c0.06-4.23-0.93-6.83-5.8-6.36-3.59 0.35-5.87-0.6-5.85-5s2.46-5.26 6-4.9c4.4 0.44 6-1.63 5.74-5.79-0.13-2.32 0.17-4.67 0-7-0.23-4 1.1-6.07 5.6-6.08 4.7 0 5.34 2.38 5.36 6.25 0.07 12 0.17 12.07 12.24 12.41 3.37 0.09 5.59 0.68 5.61 4.76s-1.85 5.26-5.71 5.34c-12.19 0.23-12.19 0.35-12.19 12.4 0 7.77-0.06 15.55 0 23.32 0.12 10 2.45 12.84 12 14.56 3.92 0.71 8.72 0 7.71 6.5-0.81 5.86-5.46 3.24-8.23 3.88z"/>
 <path class="cls-1" d="m71.33 124.41c0 7.38-0.09 14.77 0 22.15 0.06 3.9-0.9 6.23-5.53 6.13-4.22-0.1-5.9-1.67-5.86-5.92 0.12-16.71 0.06-33.43 0-50.14 0-5.25 2.19-9.48 7.2-10.78a198.78 198.78 0 0 1 24.33-4.63c3-0.39 6.34 1 6 5.33-0.28 4.18-2.58 5.75-6.64 5.19a29 29 0 0 0-4.66-0.05c-12.34 0.32-14.91 3-14.93 15.22 0.09 5.84 0.1 11.67 0.09 17.5z"/>
</svg>
