<svg id="Layer_1" data-name="Layer 1" xmlns="http://www.w3.org/2000/svg" viewBox="0 0 1200 1200"><defs><style>.cls-1{fill:#A0A0A0;}</style></defs><path class="cls-1" d="M547.55,726c2.14-15.35,4.17-30.72,6.46-46,2.37-15.92,5-31.8,7.47-47.7a28.47,28.47,0,0,0,0-3.56c-7.62,0-14.94,0-22.26,0-11.48,0-15.55-6.92-9.77-16.64q41.1-69,82.25-138h1.17q-4.54,31.33-9.11,62.67c-1.63,11.1-3.39,22.18-5.29,34.51,7,0,13.45,0,19.93,0,5.54,0,11.61-1.14,15,5.06,3.31,6-.87,10.38-3.57,14.94q-39.95,67.44-80,134.8Z"/><path class="cls-1" d="M70.33,530c2.37-.64,4.73-1.82,7.1-1.84,20-.15,40,0,60-.15,4.29,0,6.58,1,6.5,5.8s-2.68,5.28-6.48,5.17c-6-.17-12.06.23-18.06-.12-4.93-.3-6.31,1.61-6.28,6.35.17,25.06,0,50.12.16,75.18,0,4.88-1.71,6.43-6.46,6.42-5.52,0-5.69-3.31-5.68-7.31q.06-36.42,0-72.85c0-7.69,0-7.69-7.45-7.71-5.63,0-11.27.18-16.9-.09-2.19-.1-4.33-1.2-6.5-1.85Z"/><path class="cls-1" d="M714.35,583.33c6.09,10.73,12,21.18,17.94,31.62a11.57,11.57,0,0,1,1.65,3.06c.54,2.72,2.07,6.58.86,8-2.4,2.86-9.3.7-11.4-3.08-6-10.86-12.12-21.69-17.73-32.77-2.25-4.43-5-6-9.94-5.84-14.43.41-14.43.18-14.43,14.92,0,7.38-.12,14.76,0,22.14.1,4.69-2.6,5.34-6.38,5.35s-5.72-1.09-5.7-5.33c.12-27,0-54,.14-81,0-7.56,3.68-12,10.6-12.11,10.84-.12,21.87-.34,32.49,1.45,16.13,2.71,20.44,13.21,19.6,28.14C731.37,570.66,728.72,573.64,714.35,583.33Zm-33-26.32c0,4.28.13,8.56,0,12.82-.13,3.24,1.15,4.73,4.37,4.57,7.17-.36,14.4-.21,21.47-1.19,8.91-1.24,13.36-7.33,13.48-16.87.13-10.09-3.43-15.18-13.22-16.59-7.25-1-14.71-.82-22.06-.58-1.37.05-3.59,2.78-3.8,4.47C681,548,681.32,552.55,681.31,557Z"/><path class="cls-1" d="M1018.39,576.22c-4.19,13-7.8,24.19-11.4,35.4-.94,3-1.88,5.91-2.73,8.89-1.3,4.54-4.16,6.63-9,6.57s-7-2.33-8.27-6.6c-5.42-18.81-11-37.58-16.31-56.42-.77-2.71-2.13-6.16,2.77-7.34,4.46-1.06,7.53-.63,8.88,4.45,3.8,14.22,7.79,28.41,11.71,42.6.55,2,1.2,3.94,2.3,7.52,1.3-3.38,2.12-5.22,2.73-7.13q5.77-18.3,11.47-36.63c1.26-4.07,2.88-7.79,8-7.89s6.82,3.62,8.17,7.66q6.27,18.76,12.59,37.5c.54,1.62,1.17,3.22,2.3,6.29,1.06-2.7,1.77-4.1,2.16-5.59,3.87-14.61,7.76-29.21,11.46-43.86,1.11-4.43,3.38-6.35,7.94-5.2,3.32.84,4.85,2.19,3.7,6.19-5.52,19.19-10.69,38.47-16,57.71-1.16,4.18-3.6,6.64-8.28,6.72s-7.47-2-8.92-6.57c-3.9-12.18-8-24.29-12.12-36.41C1020.85,582,1019.91,580,1018.39,576.22Z"/><path class="cls-1" d="M937.5,595.37H919.43c-3.5,0-4.71,1.52-4.23,5.13,1.64,12.17,6.12,17,18.25,17.47,6.49.24,13.11-.73,19.55-1.85,3.55-.62,5.43-.25,6.62,3.35s-.61,5.13-3.5,6c-12.12,3.79-24.36,4.81-36.51.41-10.53-3.82-14.55-12.83-15.25-22.86-.63-9.17-.6-18.76,1.38-27.68,3.8-17.2,18.5-22.22,35.57-20,12.76,1.65,19.22,8.46,19.79,21.92.91,21.21,3.16,17.66-16,18-2.53.05-5.05,0-7.58,0Zm12.71-10.3c.61-7,.93-13.64-5.22-17.42-7-4.28-14.7-3.82-21.67.08-6.43,3.6-8,10-7.47,17.34Z"/><path class="cls-1" d="M774.54,595.35c-5.82,0-11.65.06-17.48,0-3.37,0-4.74,1.15-4.67,4.82.23,12.66,8.2,19.25,23,18.19,5.19-.37,10.31-1.87,15.5-2.14,1.86-.09,5,1.59,5.43,3.07.47,1.64-1,5.32-2.49,5.81-13.18,4.45-26.57,5.66-39.65-.32-6.19-2.83-9.59-8.34-11.36-14.77a67,67,0,0,1-.55-33.37c4.23-18.24,18.7-23.4,35.94-21.3,13.12,1.6,19.15,9,19.92,22.37,1.18,20.48,2,17.34-16.54,17.62-2.33,0-4.66,0-7,0Zm-22-10c11.09,0,21.31.07,31.52-.1a4.5,4.5,0,0,0,3.4-2.15c1.61-4-1.38-12.59-5-15.26-5.07-3.82-16-4.06-22.14-.31C754,571.46,752.68,577.66,752.57,585.4Z"/><path class="cls-1" d="M1096.75,629.13c-5.87-1-11.82-1.78-17.7-2.94-3.66-.72-6-2.75-4.67-7,1.23-3.86,3.88-3.86,7.41-3.33a158.35,158.35,0,0,0,20.72,1.93c6.36.11,10.13-3.23,10.86-8.41.83-6-3.15-8.31-7.82-9.9-5.68-1.93-11.5-3.48-17.13-5.54-10.21-3.73-14.2-10.6-13.07-21.85.87-8.58,7.3-15.06,17.27-16,7.46-.67,15.05-.26,22.55.16,3.49.19,7,1.2,6.2,6.38s-4.16,4.55-7.82,4.24c-6.15-.51-12.32-1.06-18.48-1-4.44,0-7.83,2.4-8.73,7.09-.93,4.86,1.09,8.47,5.68,10.21,6.33,2.4,12.86,4.3,19.18,6.74,11.42,4.42,15.58,12.93,12.29,24.61-2,7.12-7.19,10.92-14,12.62C1105.42,628.17,1101.13,628.47,1096.75,629.13Z"/><path class="cls-1" d="M837.35,612.52c6.75-17.94,12.87-34.25,19-50.55,1.19-3.15,2.35-6.26,6.81-5.76,5.85.67,7.21,2.51,5.07,8.07-5.64,14.67-11.42,29.28-17.16,43.91-1.7,4.34-3.57,8.61-5.09,13s-4.59,6.07-8.9,6c-4.13-.06-6.7-2.06-8.21-6.08-7.23-19.25-14.65-38.42-22-57.61-1-2.65-2.24-5.3,1.69-6.62,3.76-1.27,7.42-1.78,9.25,2.89,2,5.24,3.89,10.56,5.8,15.85,3.62,10,7.21,20.07,10.85,30.1C835.09,607.51,835.92,609.2,837.35,612.52Z"/><path class="cls-1" d="M880.41,591.74c0-9.69.14-19.38-.06-29.06-.09-4.18,1.33-6,5.65-6,4.49,0,5.5,2.05,5.47,6.09q-.22,29.07,0,58.14c0,4-1,6.35-5.33,6.46-4.66.11-5.89-2.26-5.79-6.56C880.56,611.13,880.41,601.43,880.41,591.74Z"/><path class="cls-1" d="M881.53,535c-.41-4.8,2-7.62,6.6-7.74s7.07,2.36,7.07,7.29c0,4.72-2.11,7.58-6.74,7.71S881.19,539.94,881.53,535Z"/><path class="cls-1" d="M475.59,555.9c0-9.18.08-18,0-26.93-.06-3.92.32-6.75,5.45-6.82s5.64,2.53,5.63,6.58c-.08,28.53-.16,57.06,0,85.59,0,5.77-2.16,9.22-7.49,10.86-10.9,3.33-22,4.87-33.22,2.19-9-2.15-14.35-8.2-16.44-17a73.41,73.41,0,0,1,.11-35.11C433,561.78,442,555.25,457.1,555,463,554.89,469,555.55,475.59,555.9Zm-.06,34.71h.05c0-3.5,0-7,0-10.49-.13-13.5,2.79-14.08-15-14.73-12.5-.46-19.3,4.18-20.49,14.28a110.09,110.09,0,0,0-.19,23.66c1.08,10.69,5.88,14.72,16.33,15.06a77.68,77.68,0,0,0,12.17-.87c4.74-.58,7.15-3.43,7.14-8.27C475.52,603,475.53,596.82,475.53,590.61Z"/><path class="cls-1" d="M390,595.34c-5.64,0-11.27.07-16.91,0-4.23-.07-5.93,1.37-5.11,6,2.16,12,6.17,16.27,18.36,16.71,6.5.23,13.12-.77,19.55-1.93,3.71-.67,5.36.16,6.48,3.62,1.2,3.72-.94,5-3.72,5.9-11.74,3.64-23.59,4.54-35.45.72-8.36-2.7-13.73-8.94-14.87-17.18a118.28,118.28,0,0,1-.79-29.41c2.4-20.83,18.62-26.77,36.67-24.29,13.09,1.79,19,9.26,19.83,23.23.23,3.67,0,7.38.19,11.06.25,4.12-1.82,5.59-5.58,5.57-6.22,0-12.44,0-18.65,0ZM368.51,585h34.36c.85-6.77,1-13.26-4.93-17.19-6.63-4.41-14.22-3.89-21.15-.49S368.25,577.29,368.51,585Z"/><path class="cls-1" d="M234.42,589.39c0,8.16-.08,16.32,0,24.47.09,6-2.2,10-8.33,11.54-11.76,3-23.6,4.52-35.65,2.09-7.83-1.58-12.26-6.5-12.41-14.6-.31-16.89-.2-33.79-.4-50.68,0-4,1.5-5.56,5.49-5.52,4.21,0,5.86,1.72,5.81,6-.15,14.18-.1,28.36,0,42.53.05,9.53,3.06,12.6,12.55,12.64a76.69,76.69,0,0,0,13.3-.86c7.9-1.36,8.37-2.13,8.4-10.4,0-14.57.12-29.13,0-43.7,0-4.41,1.41-6.46,6-6.17,3.53.23,5.32,1.49,5.27,5.29C234.33,571.13,234.42,580.26,234.42,589.39Z"/><path class="cls-1" d="M268.85,629.28c-5.1-.88-11-1.74-16.89-3-3.23-.67-6-2.13-4.78-6.4,1.12-4,3.68-4.71,7.55-4.19a169.59,169.59,0,0,0,21.88,2c6.86,0,10.1-4,10.1-10.16,0-4.4-2.77-6.31-6.13-7.52-6-2.17-12.2-3.83-18.23-5.95-10-3.5-13.92-9.42-13.44-19.84.46-10.16,6-17,16.26-18,7.83-.81,15.82-.34,23.71.08,3.41.18,7.22,1.14,6.16,6.35-1,4.75-4.17,4.65-8,4.26a167.4,167.4,0,0,0-17.89-1.07c-4.56,0-8.28,1.88-9.16,7.16s1.36,8.74,6.12,10.51c6,2.24,12.14,4,18.13,6.26,10.3,3.83,14,9.68,13.18,20.56-.65,9-6.42,15.31-16.14,17.29C277.52,628.38,273.64,628.65,268.85,629.28Z"/><path class="cls-1" d="M341.58,627.77c-16-.43-22.15-6.57-22.42-22.22q-.29-16-.06-32.07c.06-4.23-.93-6.83-5.8-6.36-3.59.35-5.87-.6-5.85-5s2.46-5.26,6-4.9c4.4.44,6-1.63,5.74-5.79-.13-2.32.17-4.67,0-7-.23-4,1.1-6.07,5.6-6.08,4.7,0,5.34,2.38,5.36,6.25.07,12,.17,12.07,12.24,12.41,3.37.09,5.59.68,5.61,4.76s-1.85,5.26-5.71,5.34c-12.19.23-12.19.35-12.19,12.4,0,7.77-.06,15.55,0,23.32.12,10,2.45,12.84,12,14.56,3.92.71,8.72,0,7.71,6.5C349,629.75,344.35,627.13,341.58,627.77Z"/><path class="cls-1" d="M141.61,598.51c0,7.38-.09,14.77,0,22.15.06,3.9-.9,6.23-5.53,6.13-4.22-.1-5.9-1.67-5.86-5.92.12-16.71.06-33.43,0-50.14,0-5.25,2.19-9.48,7.2-10.78a198.78,198.78,0,0,1,24.33-4.63c3-.39,6.34,1,6,5.33-.28,4.18-2.58,5.75-6.64,5.19a29,29,0,0,0-4.66-.05c-12.34.32-14.91,3-14.93,15.22C141.61,586.85,141.62,592.68,141.61,598.51Z"/></svg>